<svg xmlns="http://www.w3.org/2000/svg" width="256" height="256" viewBox="0 0 100 100"><rect width="100" height="100" rx="20" fill="#7d6ee7"></rect><path fill="#fff" d="M41.51 30.40L27.98 30.40L27.98 74.44Q27.57 74.60 26.71 74.80Q25.85 75.01 24.95 75.01L24.95 75.01Q21.34 75.01 21.34 71.98L21.34 71.98L21.34 30.40L6.01 30.40Q5.76 29.99 5.51 29.29Q5.27 28.60 5.27 27.70L5.27 27.70Q5.27 26.30 5.92 25.52Q6.58 24.74 7.81 24.74L7.81 24.74L43.32 24.74Q43.56 25.15 43.81 25.85Q44.05 26.55 44.05 27.37L44.05 27.37Q44.05 28.76 43.40 29.58Q42.74 30.40 41.51 30.40L41.51 30.40ZM60.13 74.44L60.13 74.44Q59.72 74.60 58.90 74.80Q58.08 75.01 57.09 75.01L57.09 75.01Q53.49 75.01 53.49 71.98L53.49 71.98L53.49 24.91Q53.90 24.74 54.76 24.54Q55.62 24.33 56.60 24.33L56.60 24.33Q60.13 24.33 60.13 27.37L60.13 27.37L60.13 74.44ZM86.69 75.67L86.69 75.67Q80.95 75.67 77.39 73.12Q73.82 70.58 73.82 64.68L73.82 64.68L73.82 25.73Q74.23 25.56 75.09 25.36Q75.95 25.15 76.94 25.15L76.94 25.15Q80.38 25.15 80.38 28.11L80.38 28.11L80.38 37.54L93.83 37.54Q94.08 37.95 94.32 38.64Q94.57 39.34 94.57 40.16L94.57 40.16Q94.57 42.95 92.11 42.95L92.11 42.95L80.38 42.95L80.38 64.27Q80.38 67.55 82.23 68.90Q84.07 70.25 87.43 70.25L87.43 70.25Q88.83 70.25 90.55 69.76Q92.27 69.27 93.42 68.61L93.42 68.61Q93.91 69.11 94.32 69.84Q94.73 70.58 94.73 71.57L94.73 71.57Q94.73 73.37 92.60 74.52Q90.47 75.67 86.69 75.67Z"></path></svg>